<svg xmlns="http://www.w3.org/2000/svg" xmlns:xlink="http://www.w3.org/1999/xlink" xmlns:lucid="lucid" width="1676.22" height="919.31"><g transform="translate(544.0377393681458 -109.14853900163357)" lucid:page-tab-id="ooz2gv6ciW.O"><path d="M-1000 0h2500v1500h-2500z" fill="#fff"/><path d="M-269.5 233.16a6 6 0 0 1 6-6h152.43a6 6 0 0 1 6 6v88a6 6 0 0 1-6 6H-263.5a6 6 0 0 1-6-6z" stroke="#5e5e5e" stroke-width="3" fill="#dfe3e8"/><use xlink:href="#a" transform="matrix(1,0,0,1,-264.5136461532585,232.15727713203472) translate(36.79012345679013 48.71527777777778)"/><path d="M64.13 233.16a6 6 0 0 1 6-6h152.44a6 6 0 0 1 6 6v88a6 6 0 0 1-6 6H70.13a6 6 0 0 1-6-6z" stroke="#5e5e5e" stroke-width="3" fill="#fff"/><use xlink:href="#b" transform="matrix(1,0,0,1,69.13071516571301,232.15727713203472) translate(34.35185185185185 37.46527777777778)"/><use xlink:href="#c" transform="matrix(1,0,0,1,69.13071516571301,232.15727713203472) translate(48.48765432098766 64.13194444444446)"/><path d="M-87.7 278.16h-14.87v-2h14.87zm148.5 0H8.95v-2H60.8z" stroke="#5e5e5e" stroke-width=".05" fill="#5e5e5e"/><path d="M-102.54 278.16h-1.03v-2h1.03z" fill="#5e5e5e"/><path d="M-102.52 278.18h-1.07v-2.05h1.08zm-1.02-2v1.95h.97v-1.95zM62.63 277.16L43.96 288.2l-1.02-1.72 15.76-9.32-15.76-9.32 1.02-1.72z" stroke="#5e5e5e" stroke-width=".05" fill="#5e5e5e"/><use xlink:href="#d" transform="matrix(1,0,0,1,-87.70444557270294,255.82394379870138) translate(0.005000000000002558 14.222222222222223)"/><use xlink:href="#e" transform="matrix(1,0,0,1,-87.70444557270294,255.82394379870138) translate(33.58524691358026 14.222222222222223)"/><use xlink:href="#f" transform="matrix(1,0,0,1,-87.70444557270294,255.82394379870138) translate(26.59759259259259 35.55555555555556)"/><path d="M580.96 233.16a6 6 0 0 1 6-6H739.4a6 6 0 0 1 6 6v88a6 6 0 0 1-6 6H586.96a6 6 0 0 1-6-6z" stroke="#5e5e5e" stroke-width="3" fill="#dfe3e8"/><use xlink:href="#g" transform="matrix(1,0,0,1,585.9561521470412,232.15727713203472) translate(53.48765432098766 37.46527777777778)"/><use xlink:href="#h" transform="matrix(1,0,0,1,585.9561521470412,232.15727713203472) translate(7.870370370370381 64.13194444444446)"/><path d="M373.23 181.9l-16.94 2.95-21.27 4.63-23.35 6.1-25.84 7.95-28.83 10.2-31.53 12.67-.75-1.86 31.58-12.68 28.9-10.23 25.94-7.96 23.43-6.14 21.34-4.64 17.33-3.03zm93.5-7.07l6.35.4 5.14.53 4.67.7 4.54.86 4.65 1.1 4.98 1.4 5.6 1.8 6.62 2.47 8.32 3.5 11.5 5.43 18.37 9.65 36.8 21.4-1 1.72-36.78-21.37-18.3-9.6-11.4-5.4-8.26-3.48-6.54-2.43-5.5-1.8-4.92-1.37-4.58-1.08-4.46-.85-4.6-.67-5.04-.53-6.27-.4-26.06-.07v-2z" stroke="#979ea8" stroke-width=".05" fill="#979ea8"/><path d="M225.43 226.24l-.54-.22-1.15-.28-1.12-.08h-.68l2.8-1.13z" fill="#979ea8"/><path d="M225.48 226.3l-.6-.26-1.13-.27-1.12-.1h-.8l2.93-1.17zm-3.4-.67h.55l1.12.1 1.15.27.5.2-.67-1.63zM585.37 225.84l-21.7.17v-2l18.3-.13-8.95-15.97 1.75-.98z" stroke="#979ea8" stroke-width=".05" fill="#979ea8"/><use xlink:href="#i" transform="matrix(1,0,0,1,373.23376579731087,155.5958400749475) translate(14.474135802469139 14.222222222222223)"/><use xlink:href="#j" transform="matrix(1,0,0,1,373.23376579731087,155.5958400749475) translate(0.005000000000002558 35.55555555555556)"/><path d="M391.54 392.4a6 6 0 0 1 6-6H550a6 6 0 0 1 6 6v88a6 6 0 0 1-6 6H397.53a6 6 0 0 1-6-6z" stroke="#5e5e5e" stroke-width="3" fill="#6f7681"/><use xlink:href="#k" transform="matrix(1,0,0,1,396.5434335923773,391.4041599250524) translate(30 48.71527777777778)"/><path d="M391.54 655.74a6 6 0 0 1 6-6H550a6 6 0 0 1 6 6v88a6 6 0 0 1-6 6H397.53a6 6 0 0 1-6-6z" stroke="#5e5e5e" stroke-width="3" fill="#6f7681"/><use xlink:href="#l" transform="matrix(1,0,0,1,396.5434335923773,654.7374932583857) translate(40.55555555555556 48.71527777777778)"/><path d="M444 576.85l-.67 1.88-82.37-29.8v-2.12zm-150.4-54.4v2.12l-61.43-22.22.7-1.88z" stroke="#979ea8" stroke-width=".05" fill="#979ea8"/><path d="M232.88 500.48l-.68 1.88-.63-.23V500z" fill="#979ea8"/><path d="M232.9 500.46l-.7 1.93-.65-.25v-2.18zm-1.3 1.66l.58.2.67-1.83-1.25-.46zM445.38 578.4l-21.32 4.04-.37-1.97 17.98-3.4-11.65-14.13 1.55-1.27z" stroke="#979ea8" stroke-width=".05" fill="#979ea8"/><use xlink:href="#i" transform="matrix(1,0,0,1,293.60463799463605,514.3558346881518) translate(14.474135802469139 14.222222222222223)"/><use xlink:href="#j" transform="matrix(1,0,0,1,293.60463799463605,514.3558346881518) translate(0.005000000000002558 35.55555555555556)"/><path d="M947.74 605.07a6 6 0 0 1 6-6h152.44a6 6 0 0 1 6 6v28a6 6 0 0 1-6 6H953.74a6 6 0 0 1-6-6z" stroke="#5e5e5e" stroke-width="3" fill="#fff"/><use xlink:href="#m" transform="matrix(1,0,0,1,952.7358683754805,604.070826591719) translate(21.60493827160493 19.71527777777778)"/><path d="M446.88 822.18a6 6 0 0 1 6-6h41.77a6 6 0 0 1 6 6v36a6 6 0 0 1-6 6H452.9a6 6 0 0 1-6-6z" stroke="#5e5e5e" stroke-width="3" fill-opacity="0"/><use xlink:href="#n" transform="matrix(1,0,0,1,451.8767669257097,821.1771673621581) translate(12.74074074074074 22.52777777777778)"/><use xlink:href="#o" transform="matrix(1,0,0,1,451.8767669257097,821.1771673621581) translate(25.086419753086417 22.52777777777778)"/><path d="M443.9 838.72l-.54 1.92-82.4-23.3v-2.07zm-150.3-42.5v2.1l-61.34-17.35.55-1.92z" stroke="#979ea8" stroke-width=".05" fill="#979ea8"/><path d="M232.83 779.05l-.54 1.93-.73-.2v-2.08z" fill="#979ea8"/><path d="M232.87 779.04l-.56 1.97-.75-.2v-2.13zm-1.27 1.72l.67.2.53-1.9-1.2-.33zM445.38 840.18l-20.97 5.54-.5-1.93 17.7-4.7-12.63-13.25 1.44-1.38z" stroke="#979ea8" stroke-width=".05" fill="#979ea8"/><use xlink:href="#i" transform="matrix(1,0,0,1,293.6046379946356,785.4600384685202) translate(14.474135802469139 14.222222222222223)"/><use xlink:href="#j" transform="matrix(1,0,0,1,293.6046379946356,785.4600384685202) translate(0.005000000000002558 35.55555555555556)"/><path d="M-269.5 584.4a6 6 0 0 1 6-6h152.43a6 6 0 0 1 6 6v88a6 6 0 0 1-6 6H-263.5a6 6 0 0 1-6-6z" stroke="#5e5e5e" stroke-width="6" fill="#fff"/><use xlink:href="#p" transform="matrix(1,0,0,1,-264.5136461532585,583.4041599250525) translate(17.654320987654316 48.71527777777778)"/><path d="M-187.3 574.4v-4.06m0-8.13v-8.12m0-8.13v-8.13m0-8.14v-8.13m0-8.13v-8.13m0-8.14v-8.13m0-8.13v-8.13m0-8.13v-8.13m0-8.13v-8.13m0-8.13V424m0-8.13v-8.13m0-8.13v-8.14m0-8.13v-8.13m0-8.13v-8.14m0-8.13v-8.13m0-8.13v-4.06" stroke="#5e5e5e" stroke-width="2" fill="none"/><path d="M-186.3 575.4h-2v-1.02h2z" stroke="#5e5e5e" stroke-width=".05" fill="#5e5e5e"/><path d="M-177.1 347.84l-10.2-17.22-10.17 17.22" stroke="#5e5e5e" stroke-width="2" fill="none"/><path d="M-100.67 628.58l-1.23-1.58 52.46-40.93h3.25zM60.3 502.98L8.5 543.4H5.25l53.83-42z" stroke="#5e5e5e" stroke-width=".05" fill="#5e5e5e"/><path d="M-100.64 628.56l-1.43 1.1v-2.52l.2-.15z" fill="#5e5e5e"/><path d="M-100.6 628.57l-1.5 1.15v-2.6l.23-.17zm-1.44-1.42v2.47l1.36-1.06-1.2-1.54zM53.2 521.26l-1.86-.73 6.7-17.04-18.16 2.33-.26-1.98 21.5-2.78z" stroke="#5e5e5e" stroke-width=".05" fill="#5e5e5e"/><use xlink:href="#d" transform="matrix(1,0,0,1,-68.79023114809375,543.4041599250523) translate(0.005000000000002558 14.222222222222223)"/><use xlink:href="#e" transform="matrix(1,0,0,1,-68.79023114809375,543.4041599250523) translate(33.58524691358026 14.222222222222223)"/><use xlink:href="#f" transform="matrix(1,0,0,1,-68.79023114809375,543.4041599250523) translate(26.59759259259259 35.55555555555556)"/><path d="M60.48 777.77l-1.36 1.46L1.07 725.4H4zM-42 682.74h-2.95l-57.07-52.92 1.36-1.47z" stroke="#5e5e5e" stroke-width=".05" fill="#5e5e5e"/><path d="M-100.64 628.37l-1.36 1.47-.07-2.8z" fill="#5e5e5e"/><path d="M-100.6 628.37l-1.42 1.53-.08-2.92zm-1.37 1.4l1.3-1.4-1.37-1.27zM61.13 779.74l-21.2-4.6.43-1.96 17.9 3.9-5.23-17.56 1.92-.57z" stroke="#5e5e5e" stroke-width=".05" fill="#5e5e5e"/><use xlink:href="#d" transform="matrix(1,0,0,1,-68.79023114809375,682.7374932583857) translate(0.005000000000002558 14.222222222222223)"/><use xlink:href="#e" transform="matrix(1,0,0,1,-68.79023114809375,682.7374932583857) translate(33.58524691358026 14.222222222222223)"/><use xlink:href="#f" transform="matrix(1,0,0,1,-68.79023114809375,682.7374932583857) translate(26.59759259259259 35.55555555555556)"/><path d="M829.35 531.4h-8.73v-2h8.73zm115.07 0h-27.3v-2h27.3z" stroke="#979ea8" stroke-width=".05" fill="#979ea8"/><path d="M820.65 531.4h-1.03v-2h1.03z" fill="#979ea8"/><path d="M820.67 531.43h-1.07v-2.05h1.07zm-1.02-2v1.95h.97v-1.95zM946.24 530.4l-18.67 11.05-1.02-1.73 15.76-9.32-15.75-9.32 1.02-1.72z" stroke="#979ea8" stroke-width=".05" fill="#979ea8"/><use xlink:href="#i" transform="matrix(1,0,0,1,829.3534165386992,509.07082659171914) translate(24.671666666666678 14.222222222222223)"/><use xlink:href="#q" transform="matrix(1,0,0,1,829.3534165386992,509.07082659171914) translate(0.005000000000002558 35.55555555555556)"/><path d="M947.74 516.4a6 6 0 0 1 6-6h152.44a6 6 0 0 1 6 6v28a6 6 0 0 1-6 6H953.74a6 6 0 0 1-6-6z" stroke="#5e5e5e" stroke-width="3" fill="#fff"/><use xlink:href="#r" transform="matrix(1,0,0,1,952.7358683754801,515.4041599250525) translate(20.771604938271594 19.71527777777778)"/><path d="M947.74 830.18a6 6 0 0 1 6-6h152.44a6 6 0 0 1 6 6v28a6 6 0 0 1-6 6H953.74a6 6 0 0 1-6-6z" stroke="#5e5e5e" stroke-width="3" fill="#fff"/><use xlink:href="#m" transform="matrix(1,0,0,1,952.7358683754799,829.1771673621581) translate(21.60493827160493 19.71527777777778)"/><path d="M646.97 552.76L503.32 579.2l-.36-1.96 144-26.52zm114.27-21.04l-35.36 6.5v-2.03l35-6.45z" stroke="#979ea8" stroke-width=".05" fill="#979ea8"/><path d="M503.34 579.2l-1.2.22v-2.03l.84-.16z" fill="#979ea8"/><path d="M503.37 579.22l-1.24.23v-2.08l.87-.16zm-1.2-1.8v1.97l1.14-.22-.34-1.92zM762.85 530.4l-16.37 14.24-1.3-1.5 13.8-12.02-17.18-6.32.7-1.87z" stroke="#979ea8" stroke-width=".05" fill="#979ea8"/><use xlink:href="#i" transform="matrix(1,0,0,1,646.9646595484626,512.4758898775214) translate(20.251913580246917 14.222222222222223)"/><use xlink:href="#s" transform="matrix(1,0,0,1,646.9646595484626,512.4758898775214) translate(25.140802469135807 35.55555555555556)"/><use xlink:href="#t" transform="matrix(1,0,0,1,646.9646595484626,512.4758898775214) translate(0.005000000000002558 56.88888888888889)"/><path d="M474.77 551.9h-2v-4.12h2zm0-12.36h-2v-8.24h2zm9.03-25.6h-4l-.82.06-.76.2-.72.3-.67.4-.6.5-.5.6-.42.67-.3.73-.17.76-.06.82v4.08h-2v-4.16l.08-1.05.25-1.07.43-1.02.57-.94.7-.83.85-.73.94-.57 1-.42 1.07-.26 1.06-.08h4.07zm16.13 0h-8.07v-2h8.07zm16.12 0H508v-2h8.05zm16.13 0h-8.06v-2h8.06zm16.13 0h-8.05v-2h8.06zm16.14 0h-8.06v-2h8.06zm16.13 0h-8.07v-2h8.07zm16.13 0h-8.07v-2h8.07zm16.13 0h-8.07v-2h8.07zm16.12 0h-8.06v-2h8.05zm16.13 0h-8.06v-2h8.06zm19.1-6.96l-.08 1.06-.26 1.06-.42 1.02-.58.94-.7.83-.7.58h-8.3v-.54h4l.82-.06.76-.2.73-.3.66-.4.6-.5.52-.6.4-.67.3-.72.2-.76.06-.82v-3.97h2zm0-12.07h-2v-8h2zm0-16.03h-2v-8.02h2zm0-16.05h-2v-8.02h2zm0-16.04h-2v-8.02h2zm0-16.04h-2v-8.02h2zm0-16.04h-2v-8.02h2zm0-16.05h-2v-8.02h2zm0-16.04h-2v-8h2zm0-16.03h-2v-8.02h2zm0-16.04h-2v-8.02h2zm0-16.04h-2v-4.02h2z" stroke="#5e5e5e" stroke-width=".05" fill="#5e5e5e"/><path d="M474.77 552.9h-2v-1.02h2z" fill="#5e5e5e"/><path d="M474.8 552.93h-2.06v-1.08h2.05zm-2-1.03v.98h1.94v-.98zM674.22 347.33l-1.72 1.02-9.32-15.76-9.32 15.75-1.72-1.02 11.04-18.67z" stroke="#5e5e5e" stroke-width=".05" fill="#5e5e5e"/><path d="M272.86 485.3l-39.98 16.32-.76-1.85 40.74-16.63zm115.88-47.28l-39.98 16.3v-2.15l39.22-16z" stroke="#979ea8" stroke-width=".05" fill="#979ea8"/><path d="M232.9 501.6l-1.33.55V500l.58-.24z" fill="#979ea8"/><path d="M232.94 501.62l-1.4.57v-2.23l.62-.25zm-1.34-1.6v2.1l1.27-.52-.74-1.8zM390.04 436.4l-13.1 17.28-1.6-1.2 11.07-14.6-18.1-2.67.28-1.96z" stroke="#979ea8" stroke-width=".05" fill="#979ea8"/><use xlink:href="#u" transform="matrix(1,0,0,1,272.858679095095,436.7374932583857) translate(21.165493827160496 14.222222222222223)"/><use xlink:href="#v" transform="matrix(1,0,0,1,272.858679095095,436.7374932583857) translate(0.005000000000002558 35.55555555555556)"/><use xlink:href="#w" transform="matrix(1,0,0,1,272.858679095095,436.7374932583857) translate(18.721049382716053 56.88888888888889)"/><path d="M64.13 457.07a6 6 0 0 1 6-6h152.44a6 6 0 0 1 6 6v88a6 6 0 0 1-6 6H70.13a6 6 0 0 1-6-6z" stroke="#5e5e5e" stroke-width="6" fill="#fff"/><use xlink:href="#x" transform="matrix(1,0,0,1,69.13071516571301,456.070826591719) translate(39.2283950617284 48.71527777777778)"/><use xlink:href="#y" transform="matrix(1,0,0,1,69.13071516571301,456.070826591719) translate(103.42592592592592 48.71527777777778)"/><path d="M64.13 735.74a6 6 0 0 1 6-6h152.44a6 6 0 0 1 6 6v88a6 6 0 0 1-6 6H70.13a6 6 0 0 1-6-6z" stroke="#5e5e5e" stroke-width="6" fill="#fff"/><use xlink:href="#x" transform="matrix(1,0,0,1,69.13071516571301,734.7374932583857) translate(39.2283950617284 48.71527777777778)"/><use xlink:href="#z" transform="matrix(1,0,0,1,69.13071516571301,734.7374932583857) translate(103.42592592592592 48.71527777777778)"/><path d="M272.86 757.05L232.9 776.2l-.86-1.8 40.82-19.57zm115.98-55.63l-40.08 19.23v-2.22l39.2-18.8z" stroke="#979ea8" stroke-width=".05" fill="#979ea8"/><path d="M232.93 776.2l-1.36.64v-2.2l.5-.25z" fill="#979ea8"/><path d="M232.97 776.2l-1.42.68v-2.27l.53-.24zm-1.37-1.56v2.16l1.3-.62-.84-1.76zM390.04 699.74l-12.06 18.03-1.66-1.12 10.18-15.2-18.24-1.6.17-2z" stroke="#979ea8" stroke-width=".05" fill="#979ea8"/><use xlink:href="#u" transform="matrix(1,0,0,1,272.8586768213043,705.7365574478131) translate(21.165493827160496 14.222222222222223)"/><use xlink:href="#v" transform="matrix(1,0,0,1,272.8586768213043,705.7365574478131) translate(0.005000000000002558 35.55555555555556)"/><use xlink:href="#w" transform="matrix(1,0,0,1,272.8586768213043,705.7365574478131) translate(18.721049382716053 56.88888888888889)"/><path d="M146.35 447.07v-4.16m0-8.32v-8.33m0-8.33v-8.33m0-8.33v-8.33m0-8.33v-8.32m0-8.33v-8.33m0-8.32v-8.33m0-8.33v-4.16" stroke="#5e5e5e" stroke-width="2" fill="none"/><path d="M147.35 448.07h-2v-1.02h2z" stroke="#5e5e5e" stroke-width=".05" fill="#5e5e5e"/><path d="M156.53 347.84l-10.18-17.22-10.18 17.22" stroke="#5e5e5e" stroke-width="2" fill="none"/><path d="M391.54 233.16a6 6 0 0 1 6-6H550a6 6 0 0 1 6 6v88a6 6 0 0 1-6 6H397.53a6 6 0 0 1-6-6z" stroke="#5e5e5e" stroke-width="3" fill="#dfe3e8"/><use xlink:href="#A" transform="matrix(1,0,0,1,396.5434335923773,232.15727713203472) translate(51.574074074074076 37.46527777777778)"/><use xlink:href="#B" transform="matrix(1,0,0,1,396.5434335923773,232.15727713203472) translate(36.172839506172835 64.13194444444446)"/><path d="M473.77 383.9v-4.45m0-8.9v-8.9m0-8.9v-8.92m0-8.9v-4.45" stroke="#5e5e5e" stroke-width="2" fill="none"/><path d="M474.77 384.9h-2v-1.02h2z" stroke="#5e5e5e" stroke-width=".05" fill="#5e5e5e"/><path d="M483.95 347.84l-10.18-17.22-10.2 17.22" stroke="#5e5e5e" stroke-width="2" fill="none"/><path d="M388.23 308.1v2l-55.96-.02v-2zm-157.16 1.98v-2h25.3v2z" stroke="#979ea8" stroke-width=".05" fill="#979ea8"/><path d="M231.1 310.08h-1.03v-2h1.03z" fill="#979ea8"/><path d="M231.13 310.1h-1.08v-2.05h1.08zm-1.03-2v1.95h.98v-1.95zM390.04 309.1l-18.67 11.04-1-1.72 15.75-9.32-15.76-9.32 1-1.72z" stroke="#979ea8" stroke-width=".05" fill="#979ea8"/><use xlink:href="#u" transform="matrix(1,0,0,1,256.3721655223622,277.07728776713395) translate(21.165493827160496 14.222222222222223)"/><use xlink:href="#v" transform="matrix(1,0,0,1,256.3721655223622,277.07728776713395) translate(0.005000000000002558 35.55555555555556)"/><use xlink:href="#w" transform="matrix(1,0,0,1,256.3721655223622,277.07728776713395) translate(18.721049382716053 56.88888888888889)"/><path d="M446.88 560.4a6 6 0 0 1 6-6h41.77a6 6 0 0 1 6 6v36a6 6 0 0 1-6 6H452.9a6 6 0 0 1-6-6z" stroke="#5e5e5e" stroke-width="3" fill-opacity="0"/><use xlink:href="#n" transform="matrix(1,0,0,1,451.8767669257106,559.4041599250525) translate(12.74074074074074 22.52777777777778)"/><use xlink:href="#o" transform="matrix(1,0,0,1,451.8767669257106,559.4041599250525) translate(25.086419753086417 22.52777777777778)"/><path d="M764.35 512.4a6 6 0 0 1 6-6h41.77a6 6 0 0 1 6 6v36a6 6 0 0 1-6 6h-41.77a6 6 0 0 1-6-6z" stroke="#5e5e5e" stroke-width="3" fill-opacity="0"/><use xlink:href="#n" transform="matrix(1,0,0,1,769.3460102612607,511.4041599250524) translate(12.74074074074074 22.52777777777778)"/><use xlink:href="#o" transform="matrix(1,0,0,1,769.3460102612607,511.4041599250524) translate(25.086419753086417 22.52777777777778)"/><path d="M761.18 613.83l-.27 1.98-34.42-4.83v-2.02zm-94.94-13.36v2.02L503 579.52l.28-1.98z" stroke="#979ea8" stroke-width=".05" fill="#979ea8"/><path d="M503.3 577.56l-.27 1.98-.88-.13v-2z" fill="#979ea8"/><path d="M503.34 577.53l-.3 2.04-.9-.13v-2.07zm-1.16 1.86l.83.1.28-1.92-1.1-.16zM762.85 615.07l-20.03 8.33-.77-1.84 16.9-7.04-14.3-11.42 1.25-1.56z" stroke="#979ea8" stroke-width=".05" fill="#979ea8"/><use xlink:href="#i" transform="matrix(1,0,0,1,666.2374996386574,584.3862619004153) translate(10.918580246913582 14.222222222222223)"/><use xlink:href="#C" transform="matrix(1,0,0,1,666.2374996386574,584.3862619004153) translate(0.004999999999999005 35.55555555555556)"/><path d="M764.35 597.07a6 6 0 0 1 6-6h41.77a6 6 0 0 1 6 6v36a6 6 0 0 1-6 6h-41.77a6 6 0 0 1-6-6z" stroke="#5e5e5e" stroke-width="3" fill-opacity="0"/><use xlink:href="#n" transform="matrix(1,0,0,1,769.346010261261,596.070826591719) translate(12.74074074074074 22.52777777777778)"/><use xlink:href="#o" transform="matrix(1,0,0,1,769.346010261261,596.070826591719) translate(25.086419753086417 22.52777777777778)"/><path d="M839.05 620.07h-18.43v-2h18.43zm105.37 0h-17.6v-2h17.6z" stroke="#979ea8" stroke-width=".05" fill="#979ea8"/><path d="M820.65 620.08h-1.03v-2h1.03z" fill="#979ea8"/><path d="M820.67 620.1h-1.07v-2.05h1.07zm-1.02-2v1.95h.97v-1.95zM946.24 619.07l-18.67 11.04-.76-1.27v-.6l15.5-9.16-15.5-9.17v-.6l.77-1.27z" stroke="#979ea8" stroke-width=".05" fill="#979ea8"/><use xlink:href="#i" transform="matrix(1,0,0,1,839.0532906695304,597.7394669360821) translate(24.671666666666678 14.222222222222223)"/><use xlink:href="#q" transform="matrix(1,0,0,1,839.0532906695304,597.7394669360821) translate(0.005000000000002558 35.55555555555556)"/><path d="M593.04 841.18h-89.9v-2h89.9zm168 0h-89.08v-2h89.07z" stroke="#979ea8" stroke-width=".05" fill="#979ea8"/><path d="M503.18 841.18h-1.03v-2h1.03z" fill="#979ea8"/><path d="M503.2 841.2h-1.07v-2.05h1.07zm-1.02-2v1.95h.97v-1.95zM762.85 840.18l-18.67 11.04-1.02-1.72 15.76-9.32-15.76-9.32 1.02-1.72z" stroke="#979ea8" stroke-width=".05" fill="#979ea8"/><use xlink:href="#i" transform="matrix(1,0,0,1,593.0434874700279,808.1771673621581) translate(20.251913580246917 14.222222222222223)"/><use xlink:href="#s" transform="matrix(1,0,0,1,593.0434874700279,808.1771673621581) translate(25.140802469135807 35.55555555555556)"/><use xlink:href="#t" transform="matrix(1,0,0,1,593.0434874700279,808.1771673621581) translate(0.005000000000002558 56.88888888888889)"/><path d="M764.35 822.18a6 6 0 0 1 6-6h41.77a6 6 0 0 1 6 6v36a6 6 0 0 1-6 6h-41.77a6 6 0 0 1-6-6z" stroke="#5e5e5e" stroke-width="3" fill-opacity="0"/><use xlink:href="#n" transform="matrix(1,0,0,1,769.3460102612598,821.1771673621581) translate(12.74074074074074 22.52777777777778)"/><use xlink:href="#o" transform="matrix(1,0,0,1,769.3460102612598,821.1771673621581) translate(25.086419753086417 22.52777777777778)"/><path d="M832.46 845.18h-11.84v-2h11.84zm111.96 0h-24.2v-2h24.2z" stroke="#979ea8" stroke-width=".05" fill="#979ea8"/><path d="M820.65 845.18h-1.03v-2h1.03z" fill="#979ea8"/><path d="M820.67 845.2h-1.07v-2.04h1.07zm-1.02-2v1.96h.97v-1.95zM946.24 844.18l-18.67 11.04-1.02-1.72 15.76-9.32-15.75-9.32 1.02-1.72z" stroke="#979ea8" stroke-width=".05" fill="#979ea8"/><use xlink:href="#i" transform="matrix(1,0,0,1,832.4584732246955,822.8460133114676) translate(24.671666666666678 14.222222222222223)"/><use xlink:href="#q" transform="matrix(1,0,0,1,832.4584732246955,822.8460133114676) translate(0.005000000000002558 35.55555555555556)"/><path d="M764.35 233.16a6 6 0 0 1 6-6H922.8a6 6 0 0 1 6 6v88a6 6 0 0 1-6 6H770.34a6 6 0 0 1-6-6z" stroke="#5e5e5e" stroke-width="3" fill="#dfe3e8"/><g><use xlink:href="#g" transform="matrix(1,0,0,1,769.3460102612607,232.15727713203472) translate(53.48765432098766 37.46527777777778)"/><use xlink:href="#D" transform="matrix(1,0,0,1,769.3460102612607,232.15727713203472) translate(44.16666666666667 64.13194444444446)"/></g><path d="M791.24 503.9v-4.05m0-8.1v-8.13m0-8.1v-8.12m0-8.1v-8.13m0-8.1v-8.12m0-8.1v-4.07l.07-.94.23-.9.36-.88.48-.8.6-.72.73-.6.8-.5.88-.37.92-.2.94-.1h3.6m7.23 0h7.22m7.2 0h7.24m7.22 0h3.6l.95-.06.92-.2.87-.37.8-.5.7-.6.62-.72.5-.8.36-.87.2-.9.1-.95v-4m0-8.04v-8.04m0-8.03v-8.03m0-8.03v-8.02m0-8.03v-8.03m0-8.03v-4.02" stroke="#5e5e5e" stroke-width="2" fill="none"/><path d="M792.24 504.9h-2v-1.02h2z" stroke="#5e5e5e" stroke-width=".05" fill="#5e5e5e"/><path d="M856.75 347.84l-10.18-17.22-10.18 17.22" stroke="#5e5e5e" stroke-width="2" fill="none"/><path d="M947.74 233.16a6 6 0 0 1 6-6h152.44a6 6 0 0 1 6 6v88a6 6 0 0 1-6 6H953.74a6 6 0 0 1-6-6z" stroke="#5e5e5e" stroke-width="3" fill="#dfe3e8"/><g><use xlink:href="#E" transform="matrix(1,0,0,1,952.7358683754805,232.15727713203472) translate(57.12962962962963 37.46527777777778)"/><use xlink:href="#F" transform="matrix(1,0,0,1,952.7358683754805,232.15727713203472) translate(54.074074074074076 64.13194444444446)"/></g><path d="M1029.96 507.9v-3.7m0-7.44v-7.42m0-7.43v-7.42m0-7.42v-7.43m0-7.43v-7.43m0-7.42v-7.43m0-7.43v-7.4m0-7.36v-7.36m0-7.36v-7.35m0-7.36v-7.35m0-7.36v-7.37m0-7.36v-7.36m0-7.34v-3.68" stroke="#5e5e5e" stroke-width="2" fill="none"/><path d="M1030.96 508.9h-2v-1.02h2z" stroke="#5e5e5e" stroke-width=".05" fill="#5e5e5e"/><path d="M1040.14 347.84l-10.18-17.22-10.18 17.22" stroke="#5e5e5e" stroke-width="2" fill="none"/><path d="M-514.02 310a5 5 0 0 1 5-5h150a5 5 0 0 1 5 5v90a5 5 0 0 1-5 5h-150a5 5 0 0 1-5-5z" stroke="#000" stroke-width="2" fill="#dfe3e8"/><g><use xlink:href="#G" transform="matrix(1,0,0,1,-502.02539368913347,317.0019073331122) translate(13.574999999999996 31.025)"/><use xlink:href="#H" transform="matrix(1,0,0,1,-502.02539368913347,317.0019073331122) translate(63.475 31.025)"/><use xlink:href="#I" transform="matrix(1,0,0,1,-502.02539368913347,317.0019073331122) translate(27.074999999999996 52.625)"/></g><path d="M-487.7 999l-8.38 6.2-1.2-1.62 8.4-6.18zm25.2-18.52l-16.8 12.35-1.18-1.6 16.8-12.36zm8.4-6.18l-1.18-1.6 5.07-3.74h3.36zm42-30.9l-5.74 4.23h-3.37l7.9-5.83zm25.18-18.52l-16.8 12.36-1.18-1.62 16.8-12.35zm16.8-12.35l-8.4 6.17-1.18-1.6 8.4-6.2z" stroke="#000" stroke-width=".05"/><path d="M-369.32 911.93l-.82.6-1.2-1.6.84-.6zM-487.8 986.28l-7.18 16.85 18.22-1.83.2 2-21.58 2.16 8.5-19.96z" stroke="#000" stroke-width=".05"/><g><use xlink:href="#J" transform="matrix(1,0,0,1,-476.96366529407175,947.6264718894366) translate(0.005000000000002558 14.222222222222223)"/><use xlink:href="#K" transform="matrix(1,0,0,1,-476.96366529407175,947.6264718894366) translate(71.06672839506172 14.222222222222223)"/></g><path d="M-514.02 187.15a5 5 0 0 1 5-5h150a5 5 0 0 1 5 5v90a5 5 0 0 1-5 5h-150a5 5 0 0 1-5-5z" stroke="#000" stroke-width="2" fill="#fff"/><g><use xlink:href="#G" transform="matrix(1,0,0,1,-502.02539368913347,194.14853900163357) translate(13.574999999999996 31.025)"/><use xlink:href="#H" transform="matrix(1,0,0,1,-502.02539368913347,194.14853900163357) translate(63.475 31.025)"/><use xlink:href="#L" transform="matrix(1,0,0,1,-502.02539368913347,194.14853900163357) translate(50.025 52.625)"/></g><path d="M-496.08 896.85l-1.2-1.6 47.07-34.62h3.36zm125.96-92.66l-47.72 35.1h-3.37l49.9-36.72z" stroke="#979ea8" stroke-width=".05" fill="#979ea8"/><path d="M-369.32 803.6l-.82.6-1.2-1.6.84-.6zM-487.8 877.95L-495 894.8l18.22-1.83.2 2-21.58 2.15 8.5-19.95z" stroke="#979ea8" stroke-width=".05" fill="#979ea8"/><g><use xlink:href="#M" transform="matrix(1,0,0,1,-541.0377393681458,839.2931385561034) translate(0.0049999999999954525 14.222222222222223)"/><use xlink:href="#N" transform="matrix(1,0,0,1,-541.0377393681458,839.2931385561034) translate(70.0296913580247 14.222222222222223)"/><use xlink:href="#O" transform="matrix(1,0,0,1,-541.0377393681458,839.2931385561034) translate(133.19018518518521 14.222222222222223)"/></g><path d="M-483.8 135.15a6 6 0 0 1 6-6h92a6 6 0 0 1 6 6v32a6 6 0 0 1-6 6h-92a6 6 0 0 1-6-6z" stroke="#000" stroke-opacity="0" fill="#fff" fill-opacity="0"/><g><use xlink:href="#P" transform="matrix(1,0,0,1,-478.8031714669112,134.14853900163357) translate(26.660493827160494 22.02777777777778)"/></g><path d="M-496.08 783.23l-1.2-1.6L-450.2 747h3.36zm125.96-92.66l-47.72 35.1h-3.37l49.9-36.7z" stroke="#000" stroke-width=".05"/><path d="M-369.32 689.97l-.82.6-1.2-1.6.84-.6zM-487.8 764.33l-7.18 16.84 18.22-1.83.2 2-21.58 2.16 8.5-19.96z" stroke="#000" stroke-width=".05"/><g><use xlink:href="#Q" transform="matrix(1,0,0,1,-518.3710727014792,725.6675459470663) translate(0.0049999999999954525 14.222222222222223)"/><use xlink:href="#R" transform="matrix(1,0,0,1,-518.3710727014792,725.6675459470663) translate(70.0296913580247 14.222222222222223)"/><use xlink:href="#S" transform="matrix(1,0,0,1,-518.3710727014792,725.6675459470663) translate(133.19018518518521 14.222222222222223)"/></g><path d="M-516.25 556.7a6 6 0 0 1 6-6h152.45a6 6 0 0 1 6 6v88a6 6 0 0 1-6 6h-152.45a6 6 0 0 1-6-6z" stroke="#5e5e5e" stroke-width="6" fill="#fff"/><g><use xlink:href="#T" transform="matrix(1,0,0,1,-511.24761591135575,555.7086439960696) translate(4.722222222222214 48.71527777777778)"/><use xlink:href="#U" transform="matrix(1,0,0,1,-511.24761591135575,555.7086439960696) translate(66.32716049382717 48.71527777777778)"/></g><path d="M-514.02 432.86a5 5 0 0 1 5-5h150a5 5 0 0 1 5 5v90a5 5 0 0 1-5 5h-150a5 5 0 0 1-5-5z" stroke="#000" stroke-width="2" fill="#6f7681"/><g><use xlink:href="#V" transform="matrix(1,0,0,1,-502.02539368913347,439.85527566459086) translate(23.549999999999997 31.025)"/><use xlink:href="#W" transform="matrix(1,0,0,1,-502.02539368913347,439.85527566459086) translate(34.525 52.625)"/></g><defs><path fill="#333" d="M205 0l-28-72H64L36 0H1l101-248h38L239 0h-34zm-38-99l-47-123c-12 45-31 82-46 123h93" id="X"/><path fill="#333" d="M85-194c31 0 48 13 60 33l-1-100h32l1 261h-30c-2-10 0-23-3-31C134-8 116 4 85 4 32 4 16-35 15-94c0-66 23-100 70-100zm9 24c-40 0-46 34-46 75 0 40 6 74 45 74 42 0 51-32 51-76 0-42-9-74-50-73" id="Y"/><path fill="#333" d="M114-163C36-179 61-72 57 0H25l-1-190h30c1 12-1 29 2 39 6-27 23-49 58-41v29" id="Z"/><path fill="#333" d="M100-194c63 0 86 42 84 106H49c0 40 14 67 53 68 26 1 43-12 49-29l28 8c-11 28-37 45-77 45C44 4 14-33 15-96c1-61 26-98 85-98zm52 81c6-60-76-77-97-28-3 7-6 17-6 28h103" id="aa"/><path fill="#333" d="M135-143c-3-34-86-38-87 0 15 53 115 12 119 90S17 21 10-45l28-5c4 36 97 45 98 0-10-56-113-15-118-90-4-57 82-63 122-42 12 7 21 19 24 35" id="ab"/><g id="a"><use transform="matrix(0.06172839506172839,0,0,0.06172839506172839,0,0)" xlink:href="#X"/><use transform="matrix(0.06172839506172839,0,0,0.06172839506172839,14.814814814814813,0)" xlink:href="#Y"/><use transform="matrix(0.06172839506172839,0,0,0.06172839506172839,27.160493827160494,0)" xlink:href="#Y"/><use transform="matrix(0.06172839506172839,0,0,0.06172839506172839,39.50617283950617,0)" xlink:href="#Z"/><use transform="matrix(0.06172839506172839,0,0,0.06172839506172839,46.85185185185185,0)" xlink:href="#aa"/><use transform="matrix(0.06172839506172839,0,0,0.06172839506172839,59.197530864197525,0)" xlink:href="#ab"/><use transform="matrix(0.06172839506172839,0,0,0.06172839506172839,70.30864197530863,0)" xlink:href="#ab"/></g><path fill="#333" d="M30 0v-248h33v221h125V0H30" id="ac"/><path fill="#333" d="M24-231v-30h32v30H24zM24 0v-190h32V0H24" id="ad"/><path fill="#333" d="M101-234c-31-9-42 10-38 44h38v23H63V0H32v-167H5v-23h27c-7-52 17-82 69-68v24" id="ae"/><path fill="#333" d="M96-169c-40 0-48 33-48 73s9 75 48 75c24 0 41-14 43-38l32 2c-6 37-31 61-74 61-59 0-76-41-82-99-10-93 101-131 147-64 4 7 5 14 7 22l-32 3c-4-21-16-35-41-35" id="af"/><path fill="#333" d="M179-190L93 31C79 59 56 82 12 73V49c39 6 53-20 64-50L1-190h34L92-34l54-156h33" id="ag"/><path fill="#333" d="M24 0v-261h32V0H24" id="ah"/><g id="b"><use transform="matrix(0.06172839506172839,0,0,0.06172839506172839,0,0)" xlink:href="#ac"/><use transform="matrix(0.06172839506172839,0,0,0.06172839506172839,12.345679012345679,0)" xlink:href="#ad"/><use transform="matrix(0.06172839506172839,0,0,0.06172839506172839,17.22222222222222,0)" xlink:href="#ae"/><use transform="matrix(0.06172839506172839,0,0,0.06172839506172839,23.39506172839506,0)" xlink:href="#aa"/><use transform="matrix(0.06172839506172839,0,0,0.06172839506172839,35.74074074074074,0)" xlink:href="#af"/><use transform="matrix(0.06172839506172839,0,0,0.06172839506172839,46.85185185185185,0)" xlink:href="#ag"/><use transform="matrix(0.06172839506172839,0,0,0.06172839506172839,57.96296296296296,0)" xlink:href="#af"/><use transform="matrix(0.06172839506172839,0,0,0.06172839506172839,69.07407407407408,0)" xlink:href="#ah"/><use transform="matrix(0.06172839506172839,0,0,0.06172839506172839,73.95061728395062,0)" xlink:href="#aa"/></g><path fill="#333" d="M185-189c-5-48-123-54-124 2 14 75 158 14 163 119 3 78-121 87-175 55-17-10-28-26-33-46l33-7c5 56 141 63 141-1 0-78-155-14-162-118-5-82 145-84 179-34 5 7 8 16 11 25" id="ai"/><path fill="#333" d="M59-47c-2 24 18 29 38 22v24C64 9 27 4 27-40v-127H5v-23h24l9-43h21v43h35v23H59v120" id="aj"/><path fill="#333" d="M141-36C126-15 110 5 73 4 37 3 15-17 15-53c-1-64 63-63 125-63 3-35-9-54-41-54-24 1-41 7-42 31l-33-3c5-37 33-52 76-52 45 0 72 20 72 64v82c-1 20 7 32 28 27v20c-31 9-61-2-59-35zM48-53c0 20 12 33 32 33 41-3 63-29 60-74-43 2-92-5-92 41" id="ak"/><path fill="#333" d="M177-190C167-65 218 103 67 71c-23-6-38-20-44-43l32-5c15 47 100 32 89-28v-30C133-14 115 1 83 1 29 1 15-40 15-95c0-56 16-97 71-98 29-1 48 16 59 35 1-10 0-23 2-32h30zM94-22c36 0 50-32 50-73 0-42-14-75-50-75-39 0-46 34-46 75s6 73 46 73" id="al"/><g id="c"><use transform="matrix(0.06172839506172839,0,0,0.06172839506172839,0,0)" xlink:href="#ai"/><use transform="matrix(0.06172839506172839,0,0,0.06172839506172839,14.814814814814813,0)" xlink:href="#aj"/><use transform="matrix(0.06172839506172839,0,0,0.06172839506172839,20.98765432098765,0)" xlink:href="#ak"/><use transform="matrix(0.06172839506172839,0,0,0.06172839506172839,33.33333333333333,0)" xlink:href="#al"/><use transform="matrix(0.06172839506172839,0,0,0.06172839506172839,45.679012345679006,0)" xlink:href="#aa"/></g><path fill="#333" d="M106-169C34-169 62-67 57 0H25v-261h32l-1 103c12-21 28-36 61-36 89 0 53 116 60 194h-32v-121c2-32-8-49-39-48" id="am"/><g id="d"><use transform="matrix(0.04938271604938272,0,0,0.04938271604938272,0,0)" xlink:href="#am"/><use transform="matrix(0.04938271604938272,0,0,0.04938271604938272,9.876543209876544,0)" xlink:href="#ak"/><use transform="matrix(0.04938271604938272,0,0,0.04938271604938272,19.75308641975309,0)" xlink:href="#ab"/></g><g id="e"><use transform="matrix(0.04938271604938272,0,0,0.04938271604938272,0,0)" xlink:href="#ah"/><use transform="matrix(0.04938271604938272,0,0,0.04938271604938272,3.901234567901235,0)" xlink:href="#ad"/><use transform="matrix(0.04938271604938272,0,0,0.04938271604938272,7.80246913580247,0)" xlink:href="#ae"/><use transform="matrix(0.04938271604938272,0,0,0.04938271604938272,12.740740740740742,0)" xlink:href="#aa"/><use transform="matrix(0.04938271604938272,0,0,0.04938271604938272,22.617283950617285,0)" xlink:href="#af"/><use transform="matrix(0.04938271604938272,0,0,0.04938271604938272,31.506172839506174,0)" xlink:href="#ag"/><use transform="matrix(0.04938271604938272,0,0,0.04938271604938272,40.39506172839506,0)" xlink:href="#af"/><use transform="matrix(0.04938271604938272,0,0,0.04938271604938272,49.28395061728395,0)" xlink:href="#ah"/><use transform="matrix(0.04938271604938272,0,0,0.04938271604938272,53.185185185185176,0)" xlink:href="#aa"/></g><g id="f"><use transform="matrix(0.04938271604938272,0,0,0.04938271604938272,0,0)" xlink:href="#ab"/><use transform="matrix(0.04938271604938272,0,0,0.04938271604938272,8.88888888888889,0)" xlink:href="#aj"/><use transform="matrix(0.04938271604938272,0,0,0.04938271604938272,13.827160493827162,0)" xlink:href="#ak"/><use transform="matrix(0.04938271604938272,0,0,0.04938271604938272,23.703703703703706,0)" xlink:href="#al"/><use transform="matrix(0.04938271604938272,0,0,0.04938271604938272,33.580246913580254,0)" xlink:href="#aa"/></g><path fill="#333" d="M210-169c-67 3-38 105-44 169h-31v-121c0-29-5-50-35-48C34-165 62-65 56 0H25l-1-190h30c1 10-1 24 2 32 10-44 99-50 107 0 11-21 27-35 58-36 85-2 47 119 55 194h-31v-121c0-29-5-49-35-48" id="an"/><path fill="#333" d="M33-154v-36h34v36H33zM33 0v-36h34V0H33" id="ao"/><g id="g"><use transform="matrix(0.06172839506172839,0,0,0.06172839506172839,0,0)" xlink:href="#aj"/><use transform="matrix(0.06172839506172839,0,0,0.06172839506172839,6.172839506172839,0)" xlink:href="#ad"/><use transform="matrix(0.06172839506172839,0,0,0.06172839506172839,11.049382716049383,0)" xlink:href="#an"/><use transform="matrix(0.06172839506172839,0,0,0.06172839506172839,29.50617283950617,0)" xlink:href="#aa"/><use transform="matrix(0.06172839506172839,0,0,0.06172839506172839,41.85185185185185,0)" xlink:href="#ao"/></g><path fill="#333" d="M30-248c87 1 191-15 191 75 0 78-77 80-158 76V0H30v-248zm33 125c57 0 124 11 124-50 0-59-68-47-124-48v98" id="ap"/><path fill="#333" d="M100-194c62-1 85 37 85 99 1 63-27 99-86 99S16-35 15-95c0-66 28-99 85-99zM99-20c44 1 53-31 53-75 0-43-8-75-51-75s-53 32-53 75 10 74 51 75" id="aq"/><path fill="#333" d="M115-194c55 1 70 41 70 98S169 2 115 4C84 4 66-9 55-30l1 105H24l-1-265h31l2 30c10-21 28-34 59-34zm-8 174c40 0 45-34 45-75s-6-73-45-74c-42 0-51 32-51 76 0 43 10 73 51 73" id="ar"/><path fill="#333" d="M33 0v-248h34V0H33" id="as"/><path fill="#333" d="M117-194c89-4 53 116 60 194h-32v-121c0-31-8-49-39-48C34-167 62-67 57 0H25l-1-190h30c1 10-1 24 2 32 11-22 29-35 61-36" id="at"/><path fill="#333" d="M108 0H70L1-190h34L89-25l56-165h34" id="au"/><g id="h"><use transform="matrix(0.06172839506172839,0,0,0.06172839506172839,0,0)" xlink:href="#ap"/><use transform="matrix(0.06172839506172839,0,0,0.06172839506172839,14.814814814814813,0)" xlink:href="#Z"/><use transform="matrix(0.06172839506172839,0,0,0.06172839506172839,22.160493827160494,0)" xlink:href="#aq"/><use transform="matrix(0.06172839506172839,0,0,0.06172839506172839,34.50617283950617,0)" xlink:href="#ar"/><use transform="matrix(0.06172839506172839,0,0,0.06172839506172839,46.85185185185185,0)" xlink:href="#aa"/><use transform="matrix(0.06172839506172839,0,0,0.06172839506172839,59.197530864197525,0)" xlink:href="#Z"/><use transform="matrix(0.06172839506172839,0,0,0.06172839506172839,66.5432098765432,0)" xlink:href="#as"/><use transform="matrix(0.06172839506172839,0,0,0.06172839506172839,72.71604938271604,0)" xlink:href="#at"/><use transform="matrix(0.06172839506172839,0,0,0.06172839506172839,85.06172839506172,0)" xlink:href="#aj"/><use transform="matrix(0.06172839506172839,0,0,0.06172839506172839,91.23456790123456,0)" xlink:href="#aa"/><use transform="matrix(0.06172839506172839,0,0,0.06172839506172839,103.58024691358024,0)" xlink:href="#Z"/><use transform="matrix(0.06172839506172839,0,0,0.06172839506172839,110.92592592592592,0)" xlink:href="#au"/><use transform="matrix(0.06172839506172839,0,0,0.06172839506172839,122.03703703703704,0)" xlink:href="#ak"/><use transform="matrix(0.06172839506172839,0,0,0.06172839506172839,134.3827160493827,0)" xlink:href="#ah"/></g><path fill="#979ea8" d="M59-47c-2 24 18 29 38 22v24C64 9 27 4 27-40v-127H5v-23h24l9-43h21v43h35v23H59v120" id="av"/><path fill="#979ea8" d="M24-231v-30h32v30H24zM24 0v-190h32V0H24" id="aw"/><path fill="#979ea8" d="M210-169c-67 3-38 105-44 169h-31v-121c0-29-5-50-35-48C34-165 62-65 56 0H25l-1-190h30c1 10-1 24 2 32 10-44 99-50 107 0 11-21 27-35 58-36 85-2 47 119 55 194h-31v-121c0-29-5-49-35-48" id="ax"/><path fill="#979ea8" d="M100-194c63 0 86 42 84 106H49c0 40 14 67 53 68 26 1 43-12 49-29l28 8c-11 28-37 45-77 45C44 4 14-33 15-96c1-61 26-98 85-98zm52 81c6-60-76-77-97-28-3 7-6 17-6 28h103" id="ay"/><path fill="#979ea8" d="M33-154v-36h34v36H33zM33 0v-36h34V0H33" id="az"/><g id="i"><use transform="matrix(0.04938271604938272,0,0,0.04938271604938272,0,0)" xlink:href="#av"/><use transform="matrix(0.04938271604938272,0,0,0.04938271604938272,4.938271604938272,0)" xlink:href="#aw"/><use transform="matrix(0.04938271604938272,0,0,0.04938271604938272,8.839506172839506,0)" xlink:href="#ax"/><use transform="matrix(0.04938271604938272,0,0,0.04938271604938272,23.60493827160494,0)" xlink:href="#ay"/><use transform="matrix(0.04938271604938272,0,0,0.04938271604938272,33.48148148148148,0)" xlink:href="#az"/></g><path fill="#979ea8" d="M106-169C34-169 62-67 57 0H25v-261h32l-1 103c12-21 28-36 61-36 89 0 53 116 60 194h-32v-121c2-32-8-49-39-48" id="aA"/><path fill="#979ea8" d="M141-36C126-15 110 5 73 4 37 3 15-17 15-53c-1-64 63-63 125-63 3-35-9-54-41-54-24 1-41 7-42 31l-33-3c5-37 33-52 76-52 45 0 72 20 72 64v82c-1 20 7 32 28 27v20c-31 9-61-2-59-35zM48-53c0 20 12 33 32 33 41-3 63-29 60-74-43 2-92-5-92 41" id="aB"/><path fill="#979ea8" d="M135-143c-3-34-86-38-87 0 15 53 115 12 119 90S17 21 10-45l28-5c4 36 97 45 98 0-10-56-113-15-118-90-4-57 82-63 122-42 12 7 21 19 24 35" id="aC"/><path fill="#979ea8" d="M127-220V0H93v-220H8v-28h204v28h-85" id="aD"/><g id="j"><use transform="matrix(0.04938271604938272,0,0,0.04938271604938272,0,0)" xlink:href="#aA"/><use transform="matrix(0.04938271604938272,0,0,0.04938271604938272,9.876543209876544,0)" xlink:href="#aB"/><use transform="matrix(0.04938271604938272,0,0,0.04938271604938272,19.75308641975309,0)" xlink:href="#aC"/><use transform="matrix(0.04938271604938272,0,0,0.04938271604938272,28.641975308641978,0)" xlink:href="#aD"/><use transform="matrix(0.04938271604938272,0,0,0.04938271604938272,38.81481481481482,0)" xlink:href="#aw"/><use transform="matrix(0.04938271604938272,0,0,0.04938271604938272,42.71604938271605,0)" xlink:href="#ax"/><use transform="matrix(0.04938271604938272,0,0,0.04938271604938272,57.48148148148149,0)" xlink:href="#ay"/></g><path fill="#fff" d="M30-248c87 1 191-15 191 75 0 78-77 80-158 76V0H30v-248zm33 125c57 0 124 11 124-50 0-59-68-47-124-48v98" id="aE"/><path fill="#fff" d="M114-163C36-179 61-72 57 0H25l-1-190h30c1 12-1 29 2 39 6-27 23-49 58-41v29" id="aF"/><path fill="#fff" d="M100-194c62-1 85 37 85 99 1 63-27 99-86 99S16-35 15-95c0-66 28-99 85-99zM99-20c44 1 53-31 53-75 0-43-8-75-51-75s-53 32-53 75 10 74 51 75" id="aG"/><path fill="#fff" d="M115-194c55 1 70 41 70 98S169 2 115 4C84 4 66-9 55-30l1 105H24l-1-265h31l2 30c10-21 28-34 59-34zm-8 174c40 0 45-34 45-75s-6-73-45-74c-42 0-51 32-51 76 0 43 10 73 51 73" id="aH"/><path fill="#fff" d="M135-143c-3-34-86-38-87 0 15 53 115 12 119 90S17 21 10-45l28-5c4 36 97 45 98 0-10-56-113-15-118-90-4-57 82-63 122-42 12 7 21 19 24 35" id="aI"/><path fill="#fff" d="M100-194c63 0 86 42 84 106H49c0 40 14 67 53 68 26 1 43-12 49-29l28 8c-11 28-37 45-77 45C44 4 14-33 15-96c1-61 26-98 85-98zm52 81c6-60-76-77-97-28-3 7-6 17-6 28h103" id="aJ"/><path fill="#fff" d="M85-194c31 0 48 13 60 33l-1-100h32l1 261h-30c-2-10 0-23-3-31C134-8 116 4 85 4 32 4 16-35 15-94c0-66 23-100 70-100zm9 24c-40 0-46 34-46 75 0 40 6 74 45 74 42 0 51-32 51-76 0-42-9-74-50-73" id="aK"/><g id="k"><use transform="matrix(0.06172839506172839,0,0,0.06172839506172839,0,0)" xlink:href="#aE"/><use transform="matrix(0.06172839506172839,0,0,0.06172839506172839,14.814814814814813,0)" xlink:href="#aF"/><use transform="matrix(0.06172839506172839,0,0,0.06172839506172839,22.160493827160494,0)" xlink:href="#aG"/><use transform="matrix(0.06172839506172839,0,0,0.06172839506172839,34.50617283950617,0)" xlink:href="#aH"/><use transform="matrix(0.06172839506172839,0,0,0.06172839506172839,46.85185185185185,0)" xlink:href="#aG"/><use transform="matrix(0.06172839506172839,0,0,0.06172839506172839,59.197530864197525,0)" xlink:href="#aI"/><use transform="matrix(0.06172839506172839,0,0,0.06172839506172839,70.30864197530863,0)" xlink:href="#aJ"/><use transform="matrix(0.06172839506172839,0,0,0.06172839506172839,82.65432098765432,0)" xlink:href="#aK"/></g><path fill="#fff" d="M212-179c-10-28-35-45-73-45-59 0-87 40-87 99 0 60 29 101 89 101 43 0 62-24 78-52l27 14C228-24 195 4 139 4 59 4 22-46 18-125c-6-104 99-153 187-111 19 9 31 26 39 46" id="aL"/><path fill="#fff" d="M84 4C-5 8 30-112 23-190h32v120c0 31 7 50 39 49 72-2 45-101 50-169h31l1 190h-30c-1-10 1-25-2-33-11 22-28 36-60 37" id="aM"/><path fill="#fff" d="M117-194c89-4 53 116 60 194h-32v-121c0-31-8-49-39-48C34-167 62-67 57 0H25l-1-190h30c1 10-1 24 2 32 11-22 29-35 61-36" id="aN"/><path fill="#fff" d="M59-47c-2 24 18 29 38 22v24C64 9 27 4 27-40v-127H5v-23h24l9-43h21v43h35v23H59v120" id="aO"/><g id="l"><use transform="matrix(0.06172839506172839,0,0,0.06172839506172839,0,0)" xlink:href="#aL"/><use transform="matrix(0.06172839506172839,0,0,0.06172839506172839,15.987654320987653,0)" xlink:href="#aM"/><use transform="matrix(0.06172839506172839,0,0,0.06172839506172839,28.333333333333332,0)" xlink:href="#aF"/><use transform="matrix(0.06172839506172839,0,0,0.06172839506172839,35.67901234567901,0)" xlink:href="#aF"/><use transform="matrix(0.06172839506172839,0,0,0.06172839506172839,43.02469135802469,0)" xlink:href="#aJ"/><use transform="matrix(0.06172839506172839,0,0,0.06172839506172839,55.37037037037037,0)" xlink:href="#aN"/><use transform="matrix(0.06172839506172839,0,0,0.06172839506172839,67.71604938271605,0)" xlink:href="#aO"/></g><path fill="#333" d="M27 0v-27h64v-190l-56 39v-29l58-41h29v221h61V0H27" id="aP"/><path fill="#333" d="M99-251c64 0 84 50 84 122C183-37 130 33 47-8c-14-7-20-23-25-40l30-5c6 39 69 39 84 7 9-19 16-44 16-74-10 22-31 35-62 35-49 0-73-33-73-83 0-54 28-83 82-83zm-1 141c31-1 51-18 51-49 0-36-14-67-51-67-34 0-49 23-49 58 0 34 15 58 49 58" id="aQ"/><path fill="#333" d="M134-131c28 9 52 24 51 62-1 50-34 73-85 73S17-19 16-69c0-36 21-54 49-61-75-25-45-126 34-121 46 3 78 18 79 63 0 33-17 51-44 57zm-34-11c31 1 46-15 46-44 0-28-17-43-47-42-29 0-46 13-45 42 1 28 16 44 46 44zm1 122c35 0 51-18 51-52 0-30-18-46-53-46-33 0-51 17-51 47 0 34 19 51 53 51" id="aR"/><path fill="#333" d="M101-251c82-7 93 87 43 132L82-64C71-53 59-42 53-27h129V0H18c2-99 128-94 128-182 0-28-16-43-45-43s-46 15-49 41l-32-3c6-41 34-60 81-64" id="aS"/><path fill="#333" d="M16-82v-28h88v28H16" id="aT"/><path fill="#333" d="M101-251c68 0 85 55 85 127S166 4 100 4C33 4 14-52 14-124c0-73 17-127 87-127zm-1 229c47 0 54-49 54-102s-4-102-53-102c-51 0-55 48-55 102 0 53 5 102 54 102" id="aU"/><path fill="#333" d="M54-142c48-35 137-8 131 61C196 18 31 33 14-55l32-4c7 23 22 37 52 37 35-1 51-22 54-58 4-55-73-65-99-34H22l8-134h141v27H59" id="aV"/><g id="m"><use transform="matrix(0.06172839506172839,0,0,0.06172839506172839,0,0)" xlink:href="#aP"/><use transform="matrix(0.06172839506172839,0,0,0.06172839506172839,12.345679012345679,0)" xlink:href="#aQ"/><use transform="matrix(0.06172839506172839,0,0,0.06172839506172839,24.691358024691358,0)" xlink:href="#aR"/><use transform="matrix(0.06172839506172839,0,0,0.06172839506172839,37.03703703703704,0)" xlink:href="#aS"/><use transform="matrix(0.06172839506172839,0,0,0.06172839506172839,49.382716049382715,0)" xlink:href="#aT"/><use transform="matrix(0.06172839506172839,0,0,0.06172839506172839,56.72839506172839,0)" xlink:href="#aU"/><use transform="matrix(0.06172839506172839,0,0,0.06172839506172839,69.07407407407408,0)" xlink:href="#aV"/><use transform="matrix(0.06172839506172839,0,0,0.06172839506172839,81.41975308641976,0)" xlink:href="#aT"/><use transform="matrix(0.06172839506172839,0,0,0.06172839506172839,88.76543209876544,0)" xlink:href="#aP"/><use transform="matrix(0.06172839506172839,0,0,0.06172839506172839,99.44444444444446,0)" xlink:href="#aP"/></g><path fill="#333" d="M26 75v-336h71v23H56V52h41v23H26" id="aW"/><use transform="matrix(0.06172839506172839,0,0,0.06172839506172839,0,0)" xlink:href="#aW" id="n"/><path fill="#333" d="M3 75V52h41v-290H3v-23h71V75H3" id="aX"/><use transform="matrix(0.06172839506172839,0,0,0.06172839506172839,0,0)" xlink:href="#aX" id="o"/><path fill="#333" d="M140-251c81 0 123 46 123 126C263-53 228-8 163 1c7 30 30 48 69 40v23c-55 16-95-15-103-61C56-3 17-48 17-125c0-80 42-126 123-126zm0 227c63 0 89-41 89-101s-29-99-89-99c-61 0-89 39-89 99S79-25 140-24" id="aY"/><path fill="#333" d="M30-248c118-7 216 8 213 122C240-48 200 0 122 0H30v-248zM63-27c89 8 146-16 146-99s-60-101-146-95v194" id="aZ"/><path fill="#333" d="M110-160c48 1 74 30 74 79 0 53-28 85-80 85-65 0-83-55-86-122-5-90 50-162 133-122 14 7 22 21 27 39l-31 6c-5-40-67-38-82-6-9 19-15 44-15 74 11-20 30-34 60-33zm-7 138c34 0 49-23 49-58s-16-56-50-56c-29 0-50 16-49 49 1 36 15 65 50 65" id="ba"/><g id="p"><use transform="matrix(0.06172839506172839,0,0,0.06172839506172839,0,0)" xlink:href="#aY"/><use transform="matrix(0.06172839506172839,0,0,0.06172839506172839,17.28395061728395,0)" xlink:href="#ac"/><use transform="matrix(0.06172839506172839,0,0,0.06172839506172839,29.629629629629626,0)" xlink:href="#aZ"/><use transform="matrix(0.06172839506172839,0,0,0.06172839506172839,45.61728395061728,0)" xlink:href="#aP"/><use transform="matrix(0.06172839506172839,0,0,0.06172839506172839,57.962962962962955,0)" xlink:href="#aR"/><use transform="matrix(0.06172839506172839,0,0,0.06172839506172839,70.30864197530863,0)" xlink:href="#ba"/><use transform="matrix(0.06172839506172839,0,0,0.06172839506172839,82.65432098765432,0)" xlink:href="#aQ"/><use transform="matrix(0.06172839506172839,0,0,0.06172839506172839,95,0)" xlink:href="#aU"/><use transform="matrix(0.06172839506172839,0,0,0.06172839506172839,107.34567901234568,0)" xlink:href="#ba"/></g><path fill="#979ea8" d="M117-194c89-4 53 116 60 194h-32v-121c0-31-8-49-39-48C34-167 62-67 57 0H25l-1-190h30c1 10-1 24 2 32 11-22 29-35 61-36" id="bb"/><path fill="#979ea8" d="M195 0l-74-108L45 0H8l94-129-87-119h37l69 98 67-98h37l-84 118L233 0h-38" id="bc"/><path fill="#979ea8" d="M185-189c-5-48-123-54-124 2 14 75 158 14 163 119 3 78-121 87-175 55-17-10-28-26-33-46l33-7c5 56 141 63 141-1 0-78-155-14-162-118-5-82 145-84 179-34 5 7 8 16 11 25" id="bd"/><path fill="#979ea8" d="M30-248c118-7 216 8 213 122C240-48 200 0 122 0H30v-248zM63-27c89 8 146-16 146-99s-60-101-146-95v194" id="be"/><g id="q"><use transform="matrix(0.04938271604938272,0,0,0.04938271604938272,0,0)" xlink:href="#aw"/><use transform="matrix(0.04938271604938272,0,0,0.04938271604938272,3.901234567901235,0)" xlink:href="#bb"/><use transform="matrix(0.04938271604938272,0,0,0.04938271604938272,13.777777777777779,0)" xlink:href="#bc"/><use transform="matrix(0.04938271604938272,0,0,0.04938271604938272,25.629629629629633,0)" xlink:href="#bd"/><use transform="matrix(0.04938271604938272,0,0,0.04938271604938272,37.48148148148149,0)" xlink:href="#be"/><use transform="matrix(0.04938271604938272,0,0,0.04938271604938272,50.271604938271615,0)" xlink:href="#be"/><use transform="matrix(0.04938271604938272,0,0,0.04938271604938272,63.06172839506174,0)" xlink:href="#aB"/><use transform="matrix(0.04938271604938272,0,0,0.04938271604938272,72.93827160493828,0)" xlink:href="#av"/><use transform="matrix(0.04938271604938272,0,0,0.04938271604938272,77.87654320987656,0)" xlink:href="#ay"/></g><g id="r"><use transform="matrix(0.06172839506172839,0,0,0.06172839506172839,0,0)" xlink:href="#aP"/><use transform="matrix(0.06172839506172839,0,0,0.06172839506172839,12.345679012345679,0)" xlink:href="#aQ"/><use transform="matrix(0.06172839506172839,0,0,0.06172839506172839,24.691358024691358,0)" xlink:href="#aR"/><use transform="matrix(0.06172839506172839,0,0,0.06172839506172839,37.03703703703704,0)" xlink:href="#aS"/><use transform="matrix(0.06172839506172839,0,0,0.06172839506172839,49.382716049382715,0)" xlink:href="#aT"/><use transform="matrix(0.06172839506172839,0,0,0.06172839506172839,56.72839506172839,0)" xlink:href="#aU"/><use transform="matrix(0.06172839506172839,0,0,0.06172839506172839,69.07407407407408,0)" xlink:href="#aS"/><use transform="matrix(0.06172839506172839,0,0,0.06172839506172839,81.41975308641976,0)" xlink:href="#aT"/><use transform="matrix(0.06172839506172839,0,0,0.06172839506172839,88.76543209876544,0)" xlink:href="#aP"/><use transform="matrix(0.06172839506172839,0,0,0.06172839506172839,101.11111111111113,0)" xlink:href="#aU"/></g><g id="s"><use transform="matrix(0.04938271604938272,0,0,0.04938271604938272,0,0)" xlink:href="#aA"/><use transform="matrix(0.04938271604938272,0,0,0.04938271604938272,9.876543209876544,0)" xlink:href="#aB"/><use transform="matrix(0.04938271604938272,0,0,0.04938271604938272,19.75308641975309,0)" xlink:href="#aC"/></g><path fill="#979ea8" d="M160-131c35 5 61 23 61 61C221 17 115-2 30 0v-248c76 3 177-17 177 60 0 33-19 50-47 57zm-97-11c50-1 110 9 110-42 0-47-63-36-110-37v79zm0 115c55-2 124 14 124-45 0-56-70-42-124-44v89" id="bf"/><path fill="#979ea8" d="M177-190C167-65 218 103 67 71c-23-6-38-20-44-43l32-5c15 47 100 32 89-28v-30C133-14 115 1 83 1 29 1 15-40 15-95c0-56 16-97 71-98 29-1 48 16 59 35 1-10 0-23 2-32h30zM94-22c36 0 50-32 50-73 0-42-14-75-50-75-39 0-46 34-46 75s6 73 46 73" id="bg"/><g id="t"><use transform="matrix(0.04938271604938272,0,0,0.04938271604938272,0,0)" xlink:href="#bf"/><use transform="matrix(0.04938271604938272,0,0,0.04938271604938272,11.851851851851853,0)" xlink:href="#ay"/><use transform="matrix(0.04938271604938272,0,0,0.04938271604938272,21.7283950617284,0)" xlink:href="#bg"/><use transform="matrix(0.04938271604938272,0,0,0.04938271604938272,31.60493827160494,0)" xlink:href="#aw"/><use transform="matrix(0.04938271604938272,0,0,0.04938271604938272,35.50617283950618,0)" xlink:href="#bb"/><use transform="matrix(0.04938271604938272,0,0,0.04938271604938272,45.38271604938272,0)" xlink:href="#bb"/><use transform="matrix(0.04938271604938272,0,0,0.04938271604938272,55.25925925925927,0)" xlink:href="#aw"/><use transform="matrix(0.04938271604938272,0,0,0.04938271604938272,59.1604938271605,0)" xlink:href="#bb"/><use transform="matrix(0.04938271604938272,0,0,0.04938271604938272,69.03703703703704,0)" xlink:href="#bg"/></g><path fill="#979ea8" d="M85-194c31 0 48 13 60 33l-1-100h32l1 261h-30c-2-10 0-23-3-31C134-8 116 4 85 4 32 4 16-35 15-94c0-66 23-100 70-100zm9 24c-40 0-46 34-46 75 0 40 6 74 45 74 42 0 51-32 51-76 0-42-9-74-50-73" id="bh"/><path fill="#979ea8" d="M100-194c62-1 85 37 85 99 1 63-27 99-86 99S16-35 15-95c0-66 28-99 85-99zM99-20c44 1 53-31 53-75 0-43-8-75-51-75s-53 32-53 75 10 74 51 75" id="bi"/><g id="u"><use transform="matrix(0.04938271604938272,0,0,0.04938271604938272,0,0)" xlink:href="#aC"/><use transform="matrix(0.04938271604938272,0,0,0.04938271604938272,8.88888888888889,0)" xlink:href="#bh"/><use transform="matrix(0.04938271604938272,0,0,0.04938271604938272,18.765432098765434,0)" xlink:href="#bi"/><use transform="matrix(0.04938271604938272,0,0,0.04938271604938272,28.641975308641978,0)" xlink:href="#az"/></g><path fill="#979ea8" d="M24 0v-261h32V0H24" id="bj"/><g id="v"><use transform="matrix(0.04938271604938272,0,0,0.04938271604938272,0,0)" xlink:href="#aB"/><use transform="matrix(0.04938271604938272,0,0,0.04938271604938272,9.876543209876544,0)" xlink:href="#bh"/><use transform="matrix(0.04938271604938272,0,0,0.04938271604938272,19.75308641975309,0)" xlink:href="#bh"/><use transform="matrix(0.04938271604938272,0,0,0.04938271604938272,29.629629629629633,0)" xlink:href="#aw"/><use transform="matrix(0.04938271604938272,0,0,0.04938271604938272,33.53086419753087,0)" xlink:href="#av"/><use transform="matrix(0.04938271604938272,0,0,0.04938271604938272,38.46913580246914,0)" xlink:href="#aw"/><use transform="matrix(0.04938271604938272,0,0,0.04938271604938272,42.370370370370374,0)" xlink:href="#bi"/><use transform="matrix(0.04938271604938272,0,0,0.04938271604938272,52.24691358024692,0)" xlink:href="#bb"/><use transform="matrix(0.04938271604938272,0,0,0.04938271604938272,62.12345679012346,0)" xlink:href="#aB"/><use transform="matrix(0.04938271604938272,0,0,0.04938271604938272,72,0)" xlink:href="#bj"/></g><path fill="#979ea8" d="M179-190L93 31C79 59 56 82 12 73V49c39 6 53-20 64-50L1-190h34L92-34l54-156h33" id="bk"/><path fill="#979ea8" d="M115-194c55 1 70 41 70 98S169 2 115 4C84 4 66-9 55-30l1 105H24l-1-265h31l2 30c10-21 28-34 59-34zm-8 174c40 0 45-34 45-75s-6-73-45-74c-42 0-51 32-51 76 0 43 10 73 51 73" id="bl"/><g id="w"><use transform="matrix(0.04938271604938272,0,0,0.04938271604938272,0,0)" xlink:href="#aD"/><use transform="matrix(0.04938271604938272,0,0,0.04938271604938272,9.82716049382716,0)" xlink:href="#bk"/><use transform="matrix(0.04938271604938272,0,0,0.04938271604938272,18.71604938271605,0)" xlink:href="#bl"/><use transform="matrix(0.04938271604938272,0,0,0.04938271604938272,28.592592592592595,0)" xlink:href="#ay"/></g><g id="x"><use transform="matrix(0.06172839506172839,0,0,0.06172839506172839,0,0)" xlink:href="#ai"/><use transform="matrix(0.06172839506172839,0,0,0.06172839506172839,14.814814814814813,0)" xlink:href="#aj"/><use transform="matrix(0.06172839506172839,0,0,0.06172839506172839,20.98765432098765,0)" xlink:href="#ak"/><use transform="matrix(0.06172839506172839,0,0,0.06172839506172839,33.33333333333333,0)" xlink:href="#al"/><use transform="matrix(0.06172839506172839,0,0,0.06172839506172839,45.679012345679006,0)" xlink:href="#aa"/></g><use transform="matrix(0.06172839506172839,0,0,0.06172839506172839,0,0)" xlink:href="#aP" id="y"/><use transform="matrix(0.06172839506172839,0,0,0.06172839506172839,0,0)" xlink:href="#aS" id="z"/><path fill="#333" d="M143 0L79-87 56-68V0H24v-261h32v163l83-92h37l-77 82L181 0h-38" id="bm"/><g id="A"><use transform="matrix(0.06172839506172839,0,0,0.06172839506172839,0,0)" xlink:href="#ab"/><use transform="matrix(0.06172839506172839,0,0,0.06172839506172839,11.11111111111111,0)" xlink:href="#bm"/><use transform="matrix(0.06172839506172839,0,0,0.06172839506172839,22.22222222222222,0)" xlink:href="#aq"/><use transform="matrix(0.06172839506172839,0,0,0.06172839506172839,34.5679012345679,0)" xlink:href="#ab"/><use transform="matrix(0.06172839506172839,0,0,0.06172839506172839,45.67901234567901,0)" xlink:href="#ao"/></g><path fill="#333" d="M212-179c-10-28-35-45-73-45-59 0-87 40-87 99 0 60 29 101 89 101 43 0 62-24 78-52l27 14C228-24 195 4 139 4 59 4 22-46 18-125c-6-104 99-153 187-111 19 9 31 26 39 46" id="bn"/><g id="B"><use transform="matrix(0.06172839506172839,0,0,0.06172839506172839,0,0)" xlink:href="#bn"/><use transform="matrix(0.06172839506172839,0,0,0.06172839506172839,15.987654320987653,0)" xlink:href="#aq"/><use transform="matrix(0.06172839506172839,0,0,0.06172839506172839,28.333333333333332,0)" xlink:href="#at"/><use transform="matrix(0.06172839506172839,0,0,0.06172839506172839,40.67901234567901,0)" xlink:href="#af"/><use transform="matrix(0.06172839506172839,0,0,0.06172839506172839,51.79012345679013,0)" xlink:href="#aa"/><use transform="matrix(0.06172839506172839,0,0,0.06172839506172839,64.13580246913581,0)" xlink:href="#ar"/><use transform="matrix(0.06172839506172839,0,0,0.06172839506172839,76.4814814814815,0)" xlink:href="#aj"/></g><path fill="#979ea8" d="M30 0v-248h187v28H63v79h144v27H63v87h162V0H30" id="bo"/><g id="C"><use transform="matrix(0.04938271604938272,0,0,0.04938271604938272,0,0)" xlink:href="#aA"/><use transform="matrix(0.04938271604938272,0,0,0.04938271604938272,9.876543209876544,0)" xlink:href="#aB"/><use transform="matrix(0.04938271604938272,0,0,0.04938271604938272,19.75308641975309,0)" xlink:href="#aC"/><use transform="matrix(0.04938271604938272,0,0,0.04938271604938272,28.641975308641978,0)" xlink:href="#bo"/><use transform="matrix(0.04938271604938272,0,0,0.04938271604938272,40.49382716049383,0)" xlink:href="#bb"/><use transform="matrix(0.04938271604938272,0,0,0.04938271604938272,50.370370370370374,0)" xlink:href="#bh"/></g><g id="D"><use transform="matrix(0.06172839506172839,0,0,0.06172839506172839,0,0)" xlink:href="#as"/><use transform="matrix(0.06172839506172839,0,0,0.06172839506172839,6.172839506172839,0)" xlink:href="#at"/><use transform="matrix(0.06172839506172839,0,0,0.06172839506172839,18.51851851851852,0)" xlink:href="#ab"/><use transform="matrix(0.06172839506172839,0,0,0.06172839506172839,29.62962962962963,0)" xlink:href="#aj"/><use transform="matrix(0.06172839506172839,0,0,0.06172839506172839,35.80246913580247,0)" xlink:href="#ak"/><use transform="matrix(0.06172839506172839,0,0,0.06172839506172839,48.148148148148145,0)" xlink:href="#at"/><use transform="matrix(0.06172839506172839,0,0,0.06172839506172839,60.49382716049382,0)" xlink:href="#aj"/></g><path fill="#333" d="M141 0L90-78 38 0H4l68-98-65-92h35l48 74 47-74h35l-64 92 68 98h-35" id="bp"/><g id="E"><use transform="matrix(0.06172839506172839,0,0,0.06172839506172839,0,0)" xlink:href="#bp"/><use transform="matrix(0.06172839506172839,0,0,0.06172839506172839,11.11111111111111,0)" xlink:href="#ab"/><use transform="matrix(0.06172839506172839,0,0,0.06172839506172839,22.22222222222222,0)" xlink:href="#Y"/><use transform="matrix(0.06172839506172839,0,0,0.06172839506172839,34.5679012345679,0)" xlink:href="#ao"/></g><g id="F"><use transform="matrix(0.06172839506172839,0,0,0.06172839506172839,0,0)" xlink:href="#aZ"/><use transform="matrix(0.06172839506172839,0,0,0.06172839506172839,15.987654320987653,0)" xlink:href="#ak"/><use transform="matrix(0.06172839506172839,0,0,0.06172839506172839,28.333333333333332,0)" xlink:href="#aj"/><use transform="matrix(0.06172839506172839,0,0,0.06172839506172839,34.50617283950617,0)" xlink:href="#aa"/></g><path d="M212-179c-10-28-35-45-73-45-59 0-87 40-87 99 0 60 29 101 89 101 43 0 62-24 78-52l27 14C228-24 195 4 139 4 59 4 22-46 18-125c-6-104 99-153 187-111 19 9 31 26 39 46" id="bq"/><path d="M24 0v-261h32V0H24" id="br"/><path d="M141-36C126-15 110 5 73 4 37 3 15-17 15-53c-1-64 63-63 125-63 3-35-9-54-41-54-24 1-41 7-42 31l-33-3c5-37 33-52 76-52 45 0 72 20 72 64v82c-1 20 7 32 28 27v20c-31 9-61-2-59-35zM48-53c0 20 12 33 32 33 41-3 63-29 60-74-43 2-92-5-92 41" id="bs"/><path d="M135-143c-3-34-86-38-87 0 15 53 115 12 119 90S17 21 10-45l28-5c4 36 97 45 98 0-10-56-113-15-118-90-4-57 82-63 122-42 12 7 21 19 24 35" id="bt"/><g id="G"><use transform="matrix(0.05,0,0,0.05,0,0)" xlink:href="#bq"/><use transform="matrix(0.05,0,0,0.05,12.950000000000001,0)" xlink:href="#br"/><use transform="matrix(0.05,0,0,0.05,16.900000000000002,0)" xlink:href="#bs"/><use transform="matrix(0.05,0,0,0.05,26.900000000000002,0)" xlink:href="#bt"/><use transform="matrix(0.05,0,0,0.05,35.900000000000006,0)" xlink:href="#bt"/></g><path d="M85-194c31 0 48 13 60 33l-1-100h32l1 261h-30c-2-10 0-23-3-31C134-8 116 4 85 4 32 4 16-35 15-94c0-66 23-100 70-100zm9 24c-40 0-46 34-46 75 0 40 6 74 45 74 42 0 51-32 51-76 0-42-9-74-50-73" id="bu"/><path d="M100-194c63 0 86 42 84 106H49c0 40 14 67 53 68 26 1 43-12 49-29l28 8c-11 28-37 45-77 45C44 4 14-33 15-96c1-61 26-98 85-98zm52 81c6-60-76-77-97-28-3 7-6 17-6 28h103" id="bv"/><path d="M101-234c-31-9-42 10-38 44h38v23H63V0H32v-167H5v-23h27c-7-52 17-82 69-68v24" id="bw"/><path d="M24-231v-30h32v30H24zM24 0v-190h32V0H24" id="bx"/><path d="M117-194c89-4 53 116 60 194h-32v-121c0-31-8-49-39-48C34-167 62-67 57 0H25l-1-190h30c1 10-1 24 2 32 11-22 29-35 61-36" id="by"/><g id="H"><use transform="matrix(0.05,0,0,0.05,0,0)" xlink:href="#bu"/><use transform="matrix(0.05,0,0,0.05,10,0)" xlink:href="#bv"/><use transform="matrix(0.05,0,0,0.05,20,0)" xlink:href="#bw"/><use transform="matrix(0.05,0,0,0.05,25,0)" xlink:href="#bx"/><use transform="matrix(0.05,0,0,0.05,28.950000000000003,0)" xlink:href="#by"/><use transform="matrix(0.05,0,0,0.05,38.95,0)" xlink:href="#bv"/><use transform="matrix(0.05,0,0,0.05,48.95,0)" xlink:href="#bu"/></g><path d="M206 0h-36l-40-164L89 0H53L-1-190h32L70-26l43-164h34l41 164 42-164h31" id="bz"/><path d="M106-169C34-169 62-67 57 0H25v-261h32l-1 103c12-21 28-36 61-36 89 0 53 116 60 194h-32v-121c2-32-8-49-39-48" id="bA"/><path d="M114-163C36-179 61-72 57 0H25l-1-190h30c1 12-1 29 2 39 6-27 23-49 58-41v29" id="bB"/><g id="I"><use transform="matrix(0.05,0,0,0.05,0,0)" xlink:href="#bv"/><use transform="matrix(0.05,0,0,0.05,10,0)" xlink:href="#br"/><use transform="matrix(0.05,0,0,0.05,13.949999999999998,0)" xlink:href="#bt"/><use transform="matrix(0.05,0,0,0.05,22.95,0)" xlink:href="#bv"/><use transform="matrix(0.05,0,0,0.05,32.95,0)" xlink:href="#bz"/><use transform="matrix(0.05,0,0,0.05,45.900000000000006,0)" xlink:href="#bA"/><use transform="matrix(0.05,0,0,0.05,55.900000000000006,0)" xlink:href="#bv"/><use transform="matrix(0.05,0,0,0.05,65.9,0)" xlink:href="#bB"/><use transform="matrix(0.05,0,0,0.05,71.85000000000001,0)" xlink:href="#bv"/></g><path d="M59-47c-2 24 18 29 38 22v24C64 9 27 4 27-40v-127H5v-23h24l9-43h21v43h35v23H59v120" id="bC"/><path d="M96-169c-40 0-48 33-48 73s9 75 48 75c24 0 41-14 43-38l32 2c-6 37-31 61-74 61-59 0-76-41-82-99-10-93 101-131 147-64 4 7 5 14 7 22l-32 3c-4-21-16-35-41-35" id="bD"/><g id="J"><use transform="matrix(0.04938271604938272,0,0,0.04938271604938272,0,0)" xlink:href="#bx"/><use transform="matrix(0.04938271604938272,0,0,0.04938271604938272,3.901234567901235,0)" xlink:href="#by"/><use transform="matrix(0.04938271604938272,0,0,0.04938271604938272,13.777777777777779,0)" xlink:href="#bt"/><use transform="matrix(0.04938271604938272,0,0,0.04938271604938272,22.666666666666668,0)" xlink:href="#bC"/><use transform="matrix(0.04938271604938272,0,0,0.04938271604938272,27.60493827160494,0)" xlink:href="#bs"/><use transform="matrix(0.04938271604938272,0,0,0.04938271604938272,37.48148148148148,0)" xlink:href="#by"/><use transform="matrix(0.04938271604938272,0,0,0.04938271604938272,47.358024691358025,0)" xlink:href="#bD"/><use transform="matrix(0.04938271604938272,0,0,0.04938271604938272,56.246913580246904,0)" xlink:href="#bv"/></g><path d="M100-194c62-1 85 37 85 99 1 63-27 99-86 99S16-35 15-95c0-66 28-99 85-99zM99-20c44 1 53-31 53-75 0-43-8-75-51-75s-53 32-53 75 10 74 51 75" id="bE"/><g id="K"><use transform="matrix(0.04938271604938272,0,0,0.04938271604938272,0,0)" xlink:href="#bE"/><use transform="matrix(0.04938271604938272,0,0,0.04938271604938272,9.876543209876544,0)" xlink:href="#bw"/></g><g id="L"><use transform="matrix(0.05,0,0,0.05,0,0)" xlink:href="#bA"/><use transform="matrix(0.05,0,0,0.05,10,0)" xlink:href="#bv"/><use transform="matrix(0.05,0,0,0.05,20,0)" xlink:href="#bB"/><use transform="matrix(0.05,0,0,0.05,25.950000000000003,0)" xlink:href="#bv"/></g><path fill="#979ea8" d="M114-163C36-179 61-72 57 0H25l-1-190h30c1 12-1 29 2 39 6-27 23-49 58-41v29" id="bF"/><g id="M"><use transform="matrix(0.04938271604938272,0,0,0.04938271604938272,0,0)" xlink:href="#bl"/><use transform="matrix(0.04938271604938272,0,0,0.04938271604938272,9.876543209876544,0)" xlink:href="#bF"/><use transform="matrix(0.04938271604938272,0,0,0.04938271604938272,15.753086419753087,0)" xlink:href="#bi"/><use transform="matrix(0.04938271604938272,0,0,0.04938271604938272,25.629629629629633,0)" xlink:href="#bl"/><use transform="matrix(0.04938271604938272,0,0,0.04938271604938272,35.50617283950618,0)" xlink:href="#ay"/><use transform="matrix(0.04938271604938272,0,0,0.04938271604938272,45.38271604938272,0)" xlink:href="#bF"/><use transform="matrix(0.04938271604938272,0,0,0.04938271604938272,51.25925925925927,0)" xlink:href="#av"/><use transform="matrix(0.04938271604938272,0,0,0.04938271604938272,56.19753086419754,0)" xlink:href="#bk"/></g><path fill="#979ea8" d="M101-234c-31-9-42 10-38 44h38v23H63V0H32v-167H5v-23h27c-7-52 17-82 69-68v24" id="bG"/><g id="N"><use transform="matrix(0.04938271604938272,0,0,0.04938271604938272,0,0)" xlink:href="#bh"/><use transform="matrix(0.04938271604938272,0,0,0.04938271604938272,9.876543209876544,0)" xlink:href="#ay"/><use transform="matrix(0.04938271604938272,0,0,0.04938271604938272,19.75308641975309,0)" xlink:href="#bG"/><use transform="matrix(0.04938271604938272,0,0,0.04938271604938272,24.69135802469136,0)" xlink:href="#aw"/><use transform="matrix(0.04938271604938272,0,0,0.04938271604938272,28.592592592592595,0)" xlink:href="#bb"/><use transform="matrix(0.04938271604938272,0,0,0.04938271604938272,38.46913580246914,0)" xlink:href="#ay"/><use transform="matrix(0.04938271604938272,0,0,0.04938271604938272,48.345679012345684,0)" xlink:href="#bh"/></g><path fill="#979ea8" d="M206 0h-36l-40-164L89 0H53L-1-190h32L70-26l43-164h34l41 164 42-164h31" id="bH"/><g id="O"><use transform="matrix(0.04938271604938272,0,0,0.04938271604938272,0,0)" xlink:href="#ay"/><use transform="matrix(0.04938271604938272,0,0,0.04938271604938272,9.876543209876544,0)" xlink:href="#bj"/><use transform="matrix(0.04938271604938272,0,0,0.04938271604938272,13.777777777777779,0)" xlink:href="#aC"/><use transform="matrix(0.04938271604938272,0,0,0.04938271604938272,22.666666666666668,0)" xlink:href="#ay"/><use transform="matrix(0.04938271604938272,0,0,0.04938271604938272,32.543209876543216,0)" xlink:href="#bH"/><use transform="matrix(0.04938271604938272,0,0,0.04938271604938272,45.33333333333334,0)" xlink:href="#aA"/><use transform="matrix(0.04938271604938272,0,0,0.04938271604938272,55.209876543209894,0)" xlink:href="#ay"/><use transform="matrix(0.04938271604938272,0,0,0.04938271604938272,65.08641975308643,0)" xlink:href="#bF"/><use transform="matrix(0.04938271604938272,0,0,0.04938271604938272,70.96296296296298,0)" xlink:href="#ay"/></g><path fill="#333" d="M195 0l-88-114-31 24V0H24v-248h52v113l112-113h60L142-143 257 0h-62" id="bI"/><path fill="#333" d="M185-48c-13 30-37 53-82 52C43 2 14-33 14-96s30-98 90-98c62 0 83 45 84 108H66c0 31 8 55 39 56 18 0 30-7 34-22zm-45-69c5-46-57-63-70-21-2 6-4 13-4 21h74" id="bJ"/><path fill="#333" d="M123 10C108 53 80 86 19 72V37c35 8 53-11 59-39L3-190h52l48 148c12-52 28-100 44-148h51" id="bK"/><g id="P"><use transform="matrix(0.06172839506172839,0,0,0.06172839506172839,0,0)" xlink:href="#bI"/><use transform="matrix(0.06172839506172839,0,0,0.06172839506172839,15.987654320987653,0)" xlink:href="#bJ"/><use transform="matrix(0.06172839506172839,0,0,0.06172839506172839,28.333333333333332,0)" xlink:href="#bK"/><path fill="#333" d="M-1.1 1.2h42.9V3.5H-1.1z"/></g><path d="M115-194c55 1 70 41 70 98S169 2 115 4C84 4 66-9 55-30l1 105H24l-1-265h31l2 30c10-21 28-34 59-34zm-8 174c40 0 45-34 45-75s-6-73-45-74c-42 0-51 32-51 76 0 43 10 73 51 73" id="bL"/><path d="M179-190L93 31C79 59 56 82 12 73V49c39 6 53-20 64-50L1-190h34L92-34l54-156h33" id="bM"/><g id="Q"><use transform="matrix(0.04938271604938272,0,0,0.04938271604938272,0,0)" xlink:href="#bL"/><use transform="matrix(0.04938271604938272,0,0,0.04938271604938272,9.876543209876544,0)" xlink:href="#bB"/><use transform="matrix(0.04938271604938272,0,0,0.04938271604938272,15.753086419753087,0)" xlink:href="#bE"/><use transform="matrix(0.04938271604938272,0,0,0.04938271604938272,25.629629629629633,0)" xlink:href="#bL"/><use transform="matrix(0.04938271604938272,0,0,0.04938271604938272,35.50617283950618,0)" xlink:href="#bv"/><use transform="matrix(0.04938271604938272,0,0,0.04938271604938272,45.38271604938272,0)" xlink:href="#bB"/><use transform="matrix(0.04938271604938272,0,0,0.04938271604938272,51.25925925925927,0)" xlink:href="#bC"/><use transform="matrix(0.04938271604938272,0,0,0.04938271604938272,56.19753086419754,0)" xlink:href="#bM"/></g><g id="R"><use transform="matrix(0.04938271604938272,0,0,0.04938271604938272,0,0)" xlink:href="#bu"/><use transform="matrix(0.04938271604938272,0,0,0.04938271604938272,9.876543209876544,0)" xlink:href="#bv"/><use transform="matrix(0.04938271604938272,0,0,0.04938271604938272,19.75308641975309,0)" xlink:href="#bw"/><use transform="matrix(0.04938271604938272,0,0,0.04938271604938272,24.69135802469136,0)" xlink:href="#bx"/><use transform="matrix(0.04938271604938272,0,0,0.04938271604938272,28.592592592592595,0)" xlink:href="#by"/><use transform="matrix(0.04938271604938272,0,0,0.04938271604938272,38.46913580246914,0)" xlink:href="#bv"/><use transform="matrix(0.04938271604938272,0,0,0.04938271604938272,48.345679012345684,0)" xlink:href="#bu"/></g><g id="S"><use transform="matrix(0.04938271604938272,0,0,0.04938271604938272,0,0)" xlink:href="#bA"/><use transform="matrix(0.04938271604938272,0,0,0.04938271604938272,9.876543209876544,0)" xlink:href="#bv"/><use transform="matrix(0.04938271604938272,0,0,0.04938271604938272,19.75308641975309,0)" xlink:href="#bB"/><use transform="matrix(0.04938271604938272,0,0,0.04938271604938272,25.629629629629633,0)" xlink:href="#bv"/></g><g id="T"><use transform="matrix(0.06172839506172839,0,0,0.06172839506172839,0,0)" xlink:href="#bn"/><use transform="matrix(0.06172839506172839,0,0,0.06172839506172839,15.987654320987653,0)" xlink:href="#ah"/><use transform="matrix(0.06172839506172839,0,0,0.06172839506172839,20.864197530864196,0)" xlink:href="#ak"/><use transform="matrix(0.06172839506172839,0,0,0.06172839506172839,33.20987654320987,0)" xlink:href="#ab"/><use transform="matrix(0.06172839506172839,0,0,0.06172839506172839,44.32098765432099,0)" xlink:href="#ab"/></g><g id="U"><use transform="matrix(0.06172839506172839,0,0,0.06172839506172839,0,0)" xlink:href="#as"/><use transform="matrix(0.06172839506172839,0,0,0.06172839506172839,6.172839506172839,0)" xlink:href="#at"/><use transform="matrix(0.06172839506172839,0,0,0.06172839506172839,18.51851851851852,0)" xlink:href="#ab"/><use transform="matrix(0.06172839506172839,0,0,0.06172839506172839,29.62962962962963,0)" xlink:href="#aj"/><use transform="matrix(0.06172839506172839,0,0,0.06172839506172839,35.80246913580247,0)" xlink:href="#ak"/><use transform="matrix(0.06172839506172839,0,0,0.06172839506172839,48.148148148148145,0)" xlink:href="#at"/><use transform="matrix(0.06172839506172839,0,0,0.06172839506172839,60.49382716049382,0)" xlink:href="#af"/><use transform="matrix(0.06172839506172839,0,0,0.06172839506172839,71.60493827160494,0)" xlink:href="#aa"/></g><path fill="#fff" d="M137 0h-34L2-248h35l83 218 83-218h36" id="bN"/><path fill="#fff" d="M96-169c-40 0-48 33-48 73s9 75 48 75c24 0 41-14 43-38l32 2c-6 37-31 61-74 61-59 0-76-41-82-99-10-93 101-131 147-64 4 7 5 14 7 22l-32 3c-4-21-16-35-41-35" id="bO"/><path fill="#fff" d="M141-36C126-15 110 5 73 4 37 3 15-17 15-53c-1-64 63-63 125-63 3-35-9-54-41-54-24 1-41 7-42 31l-33-3c5-37 33-52 76-52 45 0 72 20 72 64v82c-1 20 7 32 28 27v20c-31 9-61-2-59-35zM48-53c0 20 12 33 32 33 41-3 63-29 60-74-43 2-92-5-92 41" id="bP"/><path fill="#fff" d="M115-194c53 0 69 39 70 98 0 66-23 100-70 100C84 3 66-7 56-30L54 0H23l1-261h32v101c10-23 28-34 59-34zm-8 174c40 0 45-34 45-75 0-40-5-75-45-74-42 0-51 32-51 76 0 43 10 73 51 73" id="bQ"/><path fill="#fff" d="M24 0v-261h32V0H24" id="bR"/><path fill="#fff" d="M179-190L93 31C79 59 56 82 12 73V49c39 6 53-20 64-50L1-190h34L92-34l54-156h33" id="bS"/><g id="V"><use transform="matrix(0.05,0,0,0.05,0,0)" xlink:href="#bN"/><use transform="matrix(0.05,0,0,0.05,11,0)" xlink:href="#aG"/><use transform="matrix(0.05,0,0,0.05,21,0)" xlink:href="#bO"/><use transform="matrix(0.05,0,0,0.05,30,0)" xlink:href="#bP"/><use transform="matrix(0.05,0,0,0.05,40,0)" xlink:href="#bQ"/><use transform="matrix(0.05,0,0,0.05,50,0)" xlink:href="#aM"/><use transform="matrix(0.05,0,0,0.05,60,0)" xlink:href="#bR"/><use transform="matrix(0.05,0,0,0.05,63.95,0)" xlink:href="#bP"/><use transform="matrix(0.05,0,0,0.05,73.95,0)" xlink:href="#aF"/><use transform="matrix(0.05,0,0,0.05,79.9,0)" xlink:href="#bS"/></g><g id="W"><use transform="matrix(0.05,0,0,0.05,0,0)" xlink:href="#aL"/><use transform="matrix(0.05,0,0,0.05,12.950000000000001,0)" xlink:href="#aG"/><use transform="matrix(0.05,0,0,0.05,22.950000000000003,0)" xlink:href="#aN"/><use transform="matrix(0.05,0,0,0.05,32.95,0)" xlink:href="#bO"/><use transform="matrix(0.05,0,0,0.05,41.95,0)" xlink:href="#aJ"/><use transform="matrix(0.05,0,0,0.05,51.95,0)" xlink:href="#aH"/><use transform="matrix(0.05,0,0,0.05,61.95,0)" xlink:href="#aO"/></g></defs></g></svg>